<?xml version="1.0" encoding="UTF-8"?>
<svg width="980px" height="360px" viewBox="0 0 980 360" version="1.1" xmlns="http://www.w3.org/2000/svg" xmlns:xlink="http://www.w3.org/1999/xlink">
    <!-- Generator: sketchtool 42 (36781) - http://www.bohemiancoding.com/sketch -->
    <title>img/logo-negative</title>
    <desc>Created with sketchtool.</desc>
    <defs></defs>
    <g id="img" stroke="none" stroke-width="1" fill="none" fill-rule="evenodd">
        <g id="img/logo-negative" fill="#FFFFFF">
            <g id="master-name-short" transform="translate(20.000000, 4.400000)">
                <path d="M191.019031,104.788125 C191.019031,108.801895 188.861195,110.80875 184.545459,110.80875 C180.53799,110.80875 178.534286,108.801895 178.534286,104.788125 L178.534286,100.62 C178.534286,97.5324846 177.76363,94.2134553 176.222296,90.6628125 C174.680962,87.1121697 172.831388,84.1018873 170.67352,81.631875 L168.823929,79.779375 C162.042058,72.986841 153.873109,69.590625 144.316837,69.590625 L68.9459694,69.590625 C59.3896971,69.590625 51.2207482,72.986841 44.4388776,79.779375 C37.6570069,86.571909 34.2661224,94.7537021 34.2661224,104.325 C34.2661224,116.057559 38.2735314,124.779659 46.2884694,130.491562 C54.3034074,136.203466 64.3219297,140.448736 76.3443367,143.2275 C88.3667438,146.006264 101.390823,148.167492 115.416964,149.71125 C129.443106,151.255008 142.467185,153.80217 154.489592,157.352812 C166.511999,160.903455 176.530521,166.229339 184.545459,173.330625 C192.560397,180.431911 196.567806,190.929306 196.567806,204.823125 C196.567806,211.306907 195.334757,217.404659 192.868622,223.116562 C190.402488,228.828466 187.011603,233.845603 182.695867,238.168125 C178.380131,242.490647 173.37087,245.964049 167.667934,248.588437 C161.964997,251.212826 155.722687,252.525 148.940816,252.525 L66.6339796,252.525 C60.4686426,252.525 54.6116604,251.367199 49.0628571,249.051562 C43.5140539,246.735926 38.5047928,243.648457 34.0349235,239.789062 C29.5650542,235.929668 26.0200386,231.375651 23.3997704,226.126875 C20.7795022,220.878099 19.4693878,215.475028 19.4693878,209.9175 C19.4693878,207.447488 19.77765,204.823139 20.3941837,202.044375 C21.0107174,199.265611 22.8602907,197.87625 25.9429592,197.87625 C30.258695,197.87625 32.4165306,200.037478 32.4165306,204.36 L32.4165306,209.454375 C32.4165306,213.776897 33.4183828,217.71342 35.4221173,221.264062 C37.4258519,224.814705 40.0460808,227.979361 43.2828827,230.758125 C46.5196846,233.536889 50.2188312,235.698117 54.3804337,237.241875 C58.5420361,238.785633 62.6265106,239.5575 66.6339796,239.5575 L148.940816,239.5575 C158.497089,239.5575 166.666038,236.161284 173.447908,229.36875 C180.229779,222.576216 183.620663,214.394423 183.620663,204.823125 C183.620663,198.030591 182.233483,192.39596 179.459082,187.919062 C176.68468,183.442165 173.21673,179.737202 169.055128,176.804062 C164.893525,173.870923 160.192526,171.555321 154.95199,169.857187 C149.711453,168.159054 144.779258,166.84688 140.155255,165.920625 C129.982449,164.068116 118.114354,162.447194 104.550612,161.057812 C90.986871,159.668431 78.0398576,157.121269 65.7091837,153.41625 C53.3785098,149.711231 42.8975942,144.153787 34.2661224,136.74375 C25.6346507,129.333713 21.3189796,118.527571 21.3189796,104.325 C21.3189796,97.532466 22.629094,91.2803411 25.2493622,85.5684375 C27.8696304,79.8565339 31.3375805,74.8393966 35.6533163,70.516875 C39.9690522,66.1943534 44.9783133,62.7981373 50.68125,60.328125 C56.3841867,57.8581126 62.4723656,56.623125 68.9459694,56.623125 L144.316837,56.623125 C157.264044,56.623125 168.361484,61.2543287 177.60949,70.516875 L178.996684,71.90625 C182.387619,75.6112685 185.31611,80.010912 187.782245,85.1053125 C190.24838,90.199713 191.481429,95.2168503 191.481429,100.156875 C191.481429,100.774378 191.404363,101.469059 191.25023,102.240937 C191.096096,103.012816 191.019031,103.86187 191.019031,104.788125 Z M398.635714,240.020625 C402.643183,240.020625 404.646888,242.02748 404.646888,246.04125 C404.646888,250.363772 402.643183,252.525 398.635714,252.525 L323.727245,252.525 C312.937905,252.525 302.688186,250.363772 292.977781,246.04125 C283.267375,241.718728 274.790164,235.929724 267.545893,228.674062 C260.301622,221.418401 254.521705,212.927861 250.205969,203.202187 C245.890234,193.476514 243.732398,183.210679 243.732398,172.404375 L243.732398,136.74375 C243.732398,125.937446 245.890234,115.671611 250.205969,105.945937 C254.521705,96.2202639 260.301622,87.7297238 267.545893,80.4740625 C274.790164,73.2184012 283.267375,67.4293966 292.977781,63.106875 C302.688186,58.7843534 312.937905,56.623125 323.727245,56.623125 L398.635714,56.623125 C402.643183,56.623125 404.646888,58.7843534 404.646888,63.106875 C404.646888,67.1206451 402.643183,69.1275 398.635714,69.1275 L323.727245,69.1275 C314.787506,69.1275 306.23323,70.9027947 298.064158,74.4534375 C289.895087,78.0040803 282.72799,82.7896574 276.562653,88.8103125 C270.397316,94.8309676 265.465121,102.009333 261.765918,110.345625 C258.066716,118.681917 256.217143,127.481204 256.217143,136.74375 L256.217143,172.404375 C256.217143,181.666921 257.989651,190.389022 261.534719,198.570937 C265.079788,206.752853 269.934918,213.931219 276.100255,220.10625 C282.265592,226.281281 289.432689,231.144045 297.60176,234.694687 C305.770832,238.24533 314.479239,240.020625 323.727245,240.020625 L398.635714,240.020625 Z M446.262704,135.8175 C446.570971,125.011196 448.882938,114.822548 453.198673,105.25125 C457.514409,95.6799521 463.21726,87.2665988 470.307398,80.0109375 C477.397535,72.7552762 485.797681,67.0434583 495.508087,62.8753125 C505.218492,58.7071667 515.468211,56.623125 526.257551,56.623125 L551.227041,56.623125 C562.01638,56.623125 572.266099,58.6299799 581.976505,62.64375 C591.686911,66.6575201 600.241187,72.5237114 607.639592,80.2425 C608.872659,81.1687546 609.489184,82.5581157 609.489184,84.410625 C609.489184,88.7331466 607.485479,90.894375 603.47801,90.894375 C601.628409,90.894375 600.087098,90.2768812 598.854031,89.041875 C592.380427,82.8668441 585.059199,78.0040803 576.890128,74.4534375 C568.721056,70.9027947 560.166779,69.1275 551.227041,69.1275 L526.257551,69.1275 C517.317812,69.1275 508.840601,70.9027947 500.825663,74.4534375 C492.810725,78.0040803 485.720694,82.7896574 479.555357,88.8103125 C473.39002,94.8309676 468.457825,101.85496 464.758622,109.8825 C461.05942,117.91004 459.055716,126.40058 458.747449,135.354375 L458.747449,246.04125 C458.747449,250.363772 456.743745,252.525 452.736276,252.525 C448.42054,252.525 446.262704,250.363772 446.262704,246.04125 L446.262704,135.8175 Z M658.040969,65.4225 C658.040969,61.0999784 660.198805,58.93875 664.514541,58.93875 C668.52201,58.93875 670.525714,61.0999784 670.525714,65.4225 L670.525714,246.504375 C670.525714,250.518145 668.52201,252.525 664.514541,252.525 C660.198805,252.525 658.040969,250.518145 658.040969,246.504375 L658.040969,65.4225 Z M664.514541,4.29 C666.980676,4.29 668.98438,5.06186728 670.525714,6.605625 C672.067049,8.14938272 672.837704,10.1562376 672.837704,12.62625 C672.837704,15.0962623 672.067049,17.1031173 670.525714,18.646875 C668.98438,20.1906327 666.980676,20.9625 664.514541,20.9625 C662.048406,20.9625 660.044702,20.1906327 658.503367,18.646875 C656.962033,17.1031173 656.191378,15.0962623 656.191378,12.62625 C656.191378,10.1562376 656.962033,8.14938272 658.503367,6.605625 C660.044702,5.06186728 662.048406,4.29 664.514541,4.29 Z M731.099847,135.354375 C731.099847,124.856823 733.180617,114.822548 737.342219,105.25125 C741.503822,95.6799521 747.206673,87.2665988 754.450944,80.0109375 C761.695215,72.7552762 770.018295,67.0434583 779.420434,62.8753125 C788.822573,58.7071667 798.91816,56.623125 809.7075,56.623125 L844.387347,56.623125 C854.86842,56.623125 864.886942,58.7071667 874.443214,62.8753125 C883.999487,67.0434583 892.399632,72.7552762 899.643903,80.0109375 C906.888174,87.2665988 912.591025,95.6799521 916.752628,105.25125 C920.91423,114.822548 922.995,124.856823 922.995,135.354375 L922.995,173.79375 C922.995,184.600054 920.91423,194.711515 916.752628,204.128437 C912.591025,213.54536 906.888174,221.881526 899.643903,229.137187 C892.399632,236.392849 883.999487,242.104667 874.443214,246.272812 C864.886942,250.440958 854.86842,252.525 844.387347,252.525 L809.7075,252.525 C788.128821,252.525 769.633087,244.806327 754.219745,229.36875 L743.584592,218.716875 L743.584592,340.055625 C743.584592,344.069395 741.426756,346.07625 737.11102,346.07625 C733.103551,346.07625 731.099847,344.069395 731.099847,340.055625 L731.099847,135.354375 Z M743.584592,175.183125 C743.584592,184.13692 745.434165,192.550273 749.133367,200.423437 C752.83257,208.296602 757.6877,215.166221 763.698903,221.0325 C769.710107,226.898779 776.723072,231.529983 784.73801,234.92625 C792.752948,238.322517 801.076028,240.020625 809.7075,240.020625 L844.387347,240.020625 C853.327086,240.020625 861.804297,238.24533 869.819235,234.694687 C877.834173,231.144045 884.847138,226.358468 890.858342,220.337812 C896.869545,214.317157 901.64761,207.293165 905.192679,199.265625 C908.737747,191.238085 910.510255,182.747545 910.510255,173.79375 L910.510255,135.354375 C910.510255,126.40058 908.737747,117.91004 905.192679,109.8825 C901.64761,101.85496 896.869545,94.8309676 890.858342,88.8103125 C884.847138,82.7896574 877.834173,78.0040803 869.819235,74.4534375 C861.804297,70.9027947 853.327086,69.1275 844.387347,69.1275 L809.7075,69.1275 C800.767761,69.1275 792.29055,70.9027947 784.275612,74.4534375 C776.260674,78.0040803 769.247709,82.7896574 763.236505,88.8103125 C757.225302,94.8309676 752.447237,101.85496 748.902168,109.8825 C745.3571,117.91004 743.584592,126.40058 743.584592,135.354375 L743.584592,175.183125 Z" id="scrip"></path>
            </g>
        </g>
    </g>
</svg>